<svg width="40" height="50" viewBox="0 0 40 50" fill="none" xmlns="http://www.w3.org/2000/svg">
<g filter="url(#filter0_d_89_420)">
<mask id="path-1-inside-1_89_420" fill="white">
<path d="M20 0C28.8365 0 35.9999 7.23644 36 16.1631C36 19.4859 35.0066 22.5742 33.3047 25.1426H33.333L23.2666 39.3809C21.6727 41.6351 18.3283 41.635 16.7344 39.3809L6.66699 25.1426H6.69531C4.99338 22.5742 4 19.4859 4 16.1631C4.0001 7.23644 11.1635 0 20 0Z"/>
</mask>
<path d="M20 0C28.8365 0 35.9999 7.23644 36 16.1631C36 19.4859 35.0066 22.5742 33.3047 25.1426H33.333L23.2666 39.3809C21.6727 41.6351 18.3283 41.635 16.7344 39.3809L6.66699 25.1426H6.69531C4.99338 22.5742 4 19.4859 4 16.1631C4.0001 7.23644 11.1635 0 20 0Z" fill="#39C370"/>
<path d="M36 16.1631H38V16.1631L36 16.1631ZM33.3047 25.1426L31.6375 24.0378L29.5801 27.1426H33.3047V25.1426ZM33.333 25.1426L34.9661 26.2972L37.1964 23.1426H33.333V25.1426ZM23.2666 39.3809L24.8996 40.5355L24.8997 40.5354L23.2666 39.3809ZM16.7344 39.3809L15.1013 40.5355L15.1014 40.5356L16.7344 39.3809ZM6.66699 25.1426V23.1426H2.80342L5.03397 26.2972L6.66699 25.1426ZM6.69531 25.1426V27.1426H10.4199L8.3625 24.0378L6.69531 25.1426ZM4 16.1631L2 16.1631V16.1631H4ZM20 0V2C27.7128 2 33.9999 8.32183 34 16.1631L36 16.1631L38 16.1631C37.9999 6.15105 29.9602 -2 20 -2V0ZM36 16.1631H34C34 19.0818 33.1286 21.7876 31.6375 24.0378L33.3047 25.1426L34.9719 26.2473C36.8846 23.3608 38 19.89 38 16.1631H36ZM33.3047 25.1426V27.1426H33.333V25.1426V23.1426H33.3047V25.1426ZM33.333 25.1426L31.6999 23.988L21.6335 38.2263L23.2666 39.3809L24.8997 40.5354L34.9661 26.2972L33.333 25.1426ZM23.2666 39.3809L21.6336 38.2262C20.8367 39.3532 19.1644 39.3533 18.3673 38.2261L16.7344 39.3809L15.1014 40.5356C17.4922 43.9166 22.5087 43.9169 24.8996 40.5355L23.2666 39.3809ZM16.7344 39.3809L18.3674 38.2262L8.30002 23.9879L6.66699 25.1426L5.03397 26.2972L15.1013 40.5355L16.7344 39.3809ZM6.66699 25.1426V27.1426H6.69531V25.1426V23.1426H6.66699V25.1426ZM6.69531 25.1426L8.3625 24.0378C6.87137 21.7876 6 19.0818 6 16.1631H4H2C2 19.89 3.11539 23.3608 5.02812 26.2473L6.69531 25.1426ZM4 16.1631L6 16.1631C6.00008 8.32183 12.2872 2 20 2V0V-2C10.0398 -2 2.00011 6.15105 2 16.1631L4 16.1631Z" fill="white" mask="url(#path-1-inside-1_89_420)"/>
</g>
<path d="M20.8663 24.8333C20.4814 25.4999 19.5192 25.4999 19.1343 24.8333L11.6287 11.8332C11.2438 11.1666 11.725 10.3332 12.4948 10.3332L27.5059 10.3332C28.2757 10.3332 28.7568 11.1666 28.3719 11.8332L20.8663 24.8333Z" fill="white"/>
<defs>
<filter id="filter0_d_89_420" x="0" y="0" width="40" height="49.0715" filterUnits="userSpaceOnUse" color-interpolation-filters="sRGB">
<feFlood flood-opacity="0" result="BackgroundImageFix"/>
<feColorMatrix in="SourceAlpha" type="matrix" values="0 0 0 0 0 0 0 0 0 0 0 0 0 0 0 0 0 0 127 0" result="hardAlpha"/>
<feOffset dy="4"/>
<feGaussianBlur stdDeviation="2"/>
<feComposite in2="hardAlpha" operator="out"/>
<feColorMatrix type="matrix" values="0 0 0 0 0 0 0 0 0 0 0 0 0 0 0 0 0 0 0.25 0"/>
<feBlend mode="normal" in2="BackgroundImageFix" result="effect1_dropShadow_89_420"/>
<feBlend mode="normal" in="SourceGraphic" in2="effect1_dropShadow_89_420" result="shape"/>
</filter>
</defs>
</svg>
