<svg width="40" height="50" viewBox="0 0 40 50" fill="none" xmlns="http://www.w3.org/2000/svg">
<g filter="url(#filter0_d_89_416)">
<mask id="path-1-inside-1_89_416" fill="white">
<path d="M20 0C28.8365 0 35.9999 7.23644 36 16.1631C36 19.4859 35.0066 22.5742 33.3047 25.1426H33.333L23.2666 39.3809C21.6727 41.6351 18.3283 41.635 16.7344 39.3809L6.66699 25.1426H6.69531C4.99338 22.5742 4 19.4859 4 16.1631C4.0001 7.23644 11.1635 0 20 0Z"/>
</mask>
<path d="M20 0C28.8365 0 35.9999 7.23644 36 16.1631C36 19.4859 35.0066 22.5742 33.3047 25.1426H33.333L23.2666 39.3809C21.6727 41.6351 18.3283 41.635 16.7344 39.3809L6.66699 25.1426H6.69531C4.99338 22.5742 4 19.4859 4 16.1631C4.0001 7.23644 11.1635 0 20 0Z" fill="#F586A8"/>
<path d="M36 16.1631H38V16.1631L36 16.1631ZM33.3047 25.1426L31.6375 24.0378L29.5801 27.1426H33.3047V25.1426ZM33.333 25.1426L34.9661 26.2972L37.1964 23.1426H33.333V25.1426ZM23.2666 39.3809L24.8996 40.5355L24.8997 40.5354L23.2666 39.3809ZM16.7344 39.3809L15.1013 40.5355L15.1014 40.5356L16.7344 39.3809ZM6.66699 25.1426V23.1426H2.80342L5.03397 26.2972L6.66699 25.1426ZM6.69531 25.1426V27.1426H10.4199L8.3625 24.0378L6.69531 25.1426ZM4 16.1631L2 16.1631V16.1631H4ZM20 0V2C27.7128 2 33.9999 8.32183 34 16.1631L36 16.1631L38 16.1631C37.9999 6.15105 29.9602 -2 20 -2V0ZM36 16.1631H34C34 19.0818 33.1286 21.7876 31.6375 24.0378L33.3047 25.1426L34.9719 26.2473C36.8846 23.3608 38 19.89 38 16.1631H36ZM33.3047 25.1426V27.1426H33.333V25.1426V23.1426H33.3047V25.1426ZM33.333 25.1426L31.6999 23.988L21.6335 38.2263L23.2666 39.3809L24.8997 40.5354L34.9661 26.2972L33.333 25.1426ZM23.2666 39.3809L21.6336 38.2262C20.8367 39.3532 19.1644 39.3533 18.3673 38.2261L16.7344 39.3809L15.1014 40.5356C17.4922 43.9166 22.5087 43.9169 24.8996 40.5355L23.2666 39.3809ZM16.7344 39.3809L18.3674 38.2262L8.30002 23.9879L6.66699 25.1426L5.03397 26.2972L15.1013 40.5355L16.7344 39.3809ZM6.66699 25.1426V27.1426H6.69531V25.1426V23.1426H6.66699V25.1426ZM6.69531 25.1426L8.3625 24.0378C6.87137 21.7876 6 19.0818 6 16.1631H4H2C2 19.89 3.11539 23.3608 5.02812 26.2473L6.69531 25.1426ZM4 16.1631L6 16.1631C6.00008 8.32183 12.2872 2 20 2V0V-2C10.0398 -2 2.00011 6.15105 2 16.1631L4 16.1631Z" fill="white" mask="url(#path-1-inside-1_89_416)"/>
</g>
<path d="M20.6935 24.3352C20.3065 24.7066 19.6954 24.7066 19.3084 24.3352L12.3649 17.6694C11.7558 17.0846 11.3498 16.4048 11.1467 15.6299C10.9486 14.855 10.9511 14.0849 11.1542 13.3195C11.3572 12.5493 11.7608 11.879 12.3649 11.3085C12.9839 10.7238 13.6896 10.3363 14.4819 10.1462C15.2792 9.95127 16.074 9.95127 16.8663 10.1462C17.6636 10.3411 18.3717 10.7285 18.9907 11.3085L19.3192 11.6146C19.7033 11.9725 20.2986 11.9725 20.6826 11.6146L21.0112 11.3085C21.6351 10.7285 22.3432 10.3411 23.1356 10.1462C23.9279 9.95127 24.7202 9.95127 25.5125 10.1462C26.3098 10.3363 27.018 10.7238 27.637 11.3085C28.2411 11.879 28.6447 12.5493 28.8477 13.3195C29.0508 14.0849 29.0508 14.855 28.8477 15.6299C28.6496 16.4048 28.2461 17.0846 27.637 17.6694L20.6935 24.3352Z" fill="white"/>
<defs>
<filter id="filter0_d_89_416" x="0" y="0" width="40" height="49.0715" filterUnits="userSpaceOnUse" color-interpolation-filters="sRGB">
<feFlood flood-opacity="0" result="BackgroundImageFix"/>
<feColorMatrix in="SourceAlpha" type="matrix" values="0 0 0 0 0 0 0 0 0 0 0 0 0 0 0 0 0 0 127 0" result="hardAlpha"/>
<feOffset dy="4"/>
<feGaussianBlur stdDeviation="2"/>
<feComposite in2="hardAlpha" operator="out"/>
<feColorMatrix type="matrix" values="0 0 0 0 0 0 0 0 0 0 0 0 0 0 0 0 0 0 0.25 0"/>
<feBlend mode="normal" in2="BackgroundImageFix" result="effect1_dropShadow_89_416"/>
<feBlend mode="normal" in="SourceGraphic" in2="effect1_dropShadow_89_416" result="shape"/>
</filter>
</defs>
</svg>
